# xmcd
#
# Track frame offsets: 
#        150
#        14702
#        31129
#        48156
#        69458
#        83823
#        96013
#        113265
#        135550
#        158870
#        189397
#        202824
#        216326
#        235678
#        246555
#        266432
#        282709
#        296736
#
# Disc length: 4202 seconds
#
# Revision: 0
# Processed by: cddbd v1.5.2PL0 Copyright (c) Steve Scherf et al.
# Submitted via: ExactAudioCopy v1.1
#
DISCID=00106812
DTITLE=Broom Duster KAN - Dirty Junks live at Gin House
DYEAR=2015
DGENRE=blues
TTITLE0=Shake your moneymaker
TTITLE1=Summertime
TTITLE2=Unchain myheart
TTITLE3=Tennessee waltz
TTITLE4=Jambalaya
TTITLE5=Don’t let me be misinderstood
TTITLE6=The house of the rising sun
TTITLE7=Sunny Land
TTITLE8=Like a rolling stone
TTITLE9=Mr bojangles
TTITLE10=Louisiana mama
TTITLE11=Full of dream (Inst)
TTITLE12=Stranger blues
TTITLE13=Run away
TTITLE14=I just want to make love to you
TTITLE15=500miles
TTITLE16=Jphnny B. Good
TTITLE17=A whiter shade of pale
EXTD=
EXTT0=
EXTT1=
EXTT2=
EXTT3=
EXTT4=
EXTT5=
EXTT6=
EXTT7=
EXTT8=
EXTT9=
EXTT10=
EXTT11=
EXTT12=
EXTT13=
EXTT14=
EXTT15=
EXTT16=
EXTT17=
PLAYORDER=
